<svg xmlns="http://www.w3.org/2000/svg" width="411" height="305" viewBox="0 0 411 305" fill="none"><mask id="mask0_815_374" style="mask-type:alpha" maskUnits="userSpaceOnUse" x="0" y="0" width="411" height="305"><rect width="411" height="305" fill="white"></rect></mask><g mask="url(#mask0_815_374)"><g opacity="0.7"><line y1="-0.5" x2="296" y2="-0.5" transform="matrix(-1 0 0 1 160 4.42871)" stroke="#E3E0EE"></line><line y1="-0.5" x2="296" y2="-0.5" transform="matrix(-1 0 0 1 150 15.8574)" stroke="#E3E0EE"></line><line y1="-0.5" x2="296" y2="-0.5" transform="matrix(-1 0 0 1 190 27.2859)" stroke="#E3E0EE"></line><line y1="-0.5" x2="296" y2="-0.5" transform="matrix(-1 0 0 1 110 38.7144)" stroke="#E3E0EE"></line><line y1="-0.5" x2="296" y2="-0.5" transform="matrix(-1 0 0 1 180 50.1431)" stroke="#E3E0EE"></line><line y1="-0.5" x2="296" y2="-0.5" transform="matrix(-1 0 0 1 140 61.5715)" stroke="#E3E0EE"></line><line y1="-0.5" x2="296" y2="-0.5" transform="matrix(-1 0 0 1 150 73)" stroke="#E3E0EE"></line><line y1="-0.5" x2="296" y2="-0.5" transform="matrix(-1 0 0 1 180 84.4287)" stroke="#E3E0EE"></line><line y1="-0.5" x2="296" y2="-0.5" transform="matrix(-1 0 0 1 160 95.8574)" stroke="#E3E0EE"></line><line y1="-0.5" x2="296" y2="-0.5" transform="matrix(-1 0 0 1 180 107.286)" stroke="#E3E0EE"></line><line y1="-0.5" x2="296" y2="-0.5" transform="matrix(-1 0 0 1 180 118.714)" stroke="#E3E0EE"></line><line y1="-0.5" x2="296" y2="-0.5" transform="matrix(-1 0 0 1 180 130.143)" stroke="#E3E0EE"></line><line y1="-0.5" x2="296" y2="-0.5" transform="matrix(-1 0 0 1 180 141.572)" stroke="#E3E0EE"></line><line y1="-0.5" x2="296" y2="-0.5" transform="matrix(-1 0 0 1 180 153)" stroke="#E3E0EE"></line><line y1="-0.5" x2="296" y2="-0.5" transform="matrix(-1 0 0 1 190 164.429)" stroke="#E3E0EE"></line><line y1="-0.5" x2="296" y2="-0.5" transform="matrix(-1 0 0 1 180 175.857)" stroke="#E3E0EE"></line><line y1="-0.5" x2="296" y2="-0.5" transform="matrix(-1 0 0 1 180 187.286)" stroke="#E3E0EE"></line><line y1="-0.5" x2="296" y2="-0.5" transform="matrix(-1 0 0 1 200 198.714)" stroke="#E3E0EE"></line><line y1="-0.5" x2="296" y2="-0.5" transform="matrix(-1 0 0 1 190 210.143)" stroke="#E3E0EE"></line><line y1="-0.5" x2="296" y2="-0.5" transform="matrix(-1 0 0 1 180 221.572)" stroke="#E3E0EE"></line><line y1="-0.5" x2="296" y2="-0.5" transform="matrix(-1 0 0 1 200 233)" stroke="#E3E0EE"></line><line y1="-0.5" x2="296" y2="-0.5" transform="matrix(-1 0 0 1 180 244.429)" stroke="#E3E0EE"></line><line y1="-0.5" x2="296" y2="-0.5" transform="matrix(-1 0 0 1 180 255.857)" stroke="#E3E0EE"></line><line y1="-0.5" x2="296" y2="-0.5" transform="matrix(-1 0 0 1 200 267.286)" stroke="#E3E0EE"></line><line y1="-0.5" x2="296" y2="-0.5" transform="matrix(-1 0 0 1 230 278.714)" stroke="#E3E0EE"></line><line y1="-0.5" x2="296" y2="-0.5" transform="matrix(-1 0 0 1 190 288.714)" stroke="#E3E0EE"></line><line y1="-0.5" x2="296" y2="-0.5" transform="matrix(-1 0 0 1 180 298.714)" stroke="#E3E0EE"></line><line y1="-0.5" x2="364" y2="-0.5" transform="matrix(4.37114e-08 -1 -1 -4.37114e-08 168.571 357)" stroke="#E3E0EE" stroke-opacity="0.3"></line><line y1="-0.5" x2="364" y2="-0.5" transform="matrix(4.37114e-08 -1 -1 -4.37114e-08 157.19 357)" stroke="#E3E0EE" stroke-opacity="0.5"></line><line y1="-0.5" x2="364" y2="-0.5" transform="matrix(4.37114e-08 -1 -1 -4.37114e-08 145.81 357)" stroke="#E3E0EE" stroke-opacity="0.6"></line><line y1="-0.5" x2="364" y2="-0.5" transform="matrix(4.37114e-08 -1 -1 -4.37114e-08 134.429 357)" stroke="#E3E0EE" stroke-opacity="0.7"></line><line y1="-0.5" x2="364" y2="-0.5" transform="matrix(4.37114e-08 -1 -1 -4.37114e-08 123.048 357)" stroke="#E3E0EE" stroke-opacity="0.8"></line><line y1="-0.5" x2="364" y2="-0.5" transform="matrix(4.37114e-08 -1 -1 -4.37114e-08 111.666 357)" stroke="#E3E0EE" stroke-opacity="0.9"></line><line y1="-0.5" x2="364" y2="-0.5" transform="matrix(4.37114e-08 -1 -1 -4.37114e-08 100.286 357)" stroke="#E3E0EE"></line><line y1="-0.5" x2="364" y2="-0.5" transform="matrix(4.37114e-08 -1 -1 -4.37114e-08 88.9053 357)" stroke="#E3E0EE"></line><line y1="-0.5" x2="364" y2="-0.5" transform="matrix(4.37114e-08 -1 -1 -4.37114e-08 77.5234 357)" stroke="#E3E0EE"></line><line y1="-0.5" x2="364" y2="-0.5" transform="matrix(4.37114e-08 -1 -1 -4.37114e-08 66.1426 357)" stroke="#E3E0EE"></line><line y1="-0.5" x2="364" y2="-0.5" transform="matrix(4.37114e-08 -1 -1 -4.37114e-08 54.7627 357)" stroke="#E3E0EE"></line><line y1="-0.5" x2="364" y2="-0.5" transform="matrix(4.37114e-08 -1 -1 -4.37114e-08 43.3809 357)" stroke="#E3E0EE"></line><line y1="-0.5" x2="364" y2="-0.5" transform="matrix(4.37114e-08 -1 -1 -4.37114e-08 32 357)" stroke="#E3E0EE"></line><line y1="-0.5" x2="364" y2="-0.5" transform="matrix(4.37114e-08 -1 -1 -4.37114e-08 20.6191 357)" stroke="#E3E0EE"></line><line y1="-0.5" x2="364" y2="-0.5" transform="matrix(4.37114e-08 -1 -1 -4.37114e-08 9.2373 357)" stroke="#E3E0EE"></line></g></g></svg>