<svg xmlns="http://www.w3.org/2000/svg" width="160" height="43" viewBox="0 0 160 43" fill="none"><path d="M122 11.2001V18.7317C131.486 18.1617 137.226 6.15195 146.345 11.6887C139.669 13.6202 144.31 19.2609 152.167 18.7317C155.994 18.3246 159.047 15.3119 159.291 11.1187V3.75H129.45C124.972 4.27924 122.489 7.16973 122 11.2001Z" fill="#36A2C5"></path><path d="M132.992 24.1464V39.2502H140.727C144.92 38.7617 147.892 36.0748 148.299 31.5151V23.4543C142.579 22.4924 140.818 20.6468 138.407 16.6963C134.342 18.6457 133.373 20.3835 132.992 24.1464Z" fill="#36A2C5"></path><path d="M5.88828 4.2C6.02161 5.17333 6.12828 6.49333 6.20828 8.16C6.28828 9.81333 6.32828 11.3467 6.32828 12.76V13.52C6.31495 14.2 6.34828 14.7133 6.42828 15.06C6.50828 15.4067 6.66828 15.6533 6.90828 15.8C7.16161 15.9467 7.54828 16.02 8.06828 16.02H8.16828L8.32828 17.52L8.16828 19H8.06828C6.60161 19 5.54161 18.58 4.88828 17.74C4.24828 16.9 3.92828 15.62 3.92828 13.9C3.91495 12.26 3.86161 10.6 3.76828 8.92C3.68828 7.22667 3.56828 5.83333 3.40828 4.74L5.88828 4.2ZM7.97422 16.02H12.1342L12.2942 17.52L12.1342 19H7.97422V16.02ZM11.9391 16.02H16.0991L16.2591 17.52L16.0991 19H11.9391V16.02ZM15.9039 16.02H20.0639L20.2239 17.52L20.0639 19H15.9039V16.02ZM19.8687 16.02H24.0288L24.1888 17.52L24.0288 19H19.8687V16.02ZM23.8336 16.02H27.9936L28.1536 17.52L27.9936 19H23.8336V16.02ZM27.7984 16.02H31.9584L32.1184 17.52L31.9584 19H27.7984V16.02ZM31.7633 16.02H35.9233L36.0833 17.52L35.9233 19H31.7633V16.02ZM35.7281 16.02H39.8881L40.0481 17.52L39.8881 19H35.7281V16.02ZM39.693 16.02H43.853L44.013 17.52L43.853 19H39.693V16.02ZM43.6578 16.02H47.8178L47.9778 17.52L47.8178 19H43.6578V16.02ZM47.6227 16.02H51.7827L51.9427 17.52L51.7827 19H47.6227V16.02ZM51.5875 16.02H55.7475L55.9075 17.52L55.7475 19H51.5875V16.02ZM55.5523 16.02H59.7123L59.8723 17.52L59.7123 19H55.5523V16.02ZM59.5172 16.02H63.6772L63.8372 17.52L63.6772 19H59.5172V16.02ZM63.482 16.02H67.642L67.802 17.52L67.642 19H63.482V16.02ZM67.4469 16.02H71.6069L71.7669 17.52L71.6069 19H67.4469V16.02ZM71.4117 16.02H75.5717L75.7317 17.52L75.5717 19H71.4117V16.02ZM75.3766 16.02H79.5366L79.6966 17.52L79.5366 19H75.3766V16.02ZM79.3414 16.02H83.5014L83.6614 17.52L83.5014 19H79.3414V16.02ZM83.3062 16.02H87.4663L87.6263 17.52L87.4663 19H83.3062V16.02ZM87.2711 16.02H87.8911C88.5844 16.02 89.0844 15.88 89.3911 15.6C89.7111 15.32 89.8711 14.8867 89.8711 14.3C89.8578 13.38 89.7778 11.76 89.6311 9.44C89.4978 7.10667 89.3778 5.54 89.2711 4.74L91.7711 4.2C91.8644 4.98667 91.9644 6.60667 92.0711 9.06C92.1911 11.5 92.2511 13.1933 92.2511 14.14C92.2511 15.0467 92.0644 15.8733 91.6911 16.62C91.3311 17.3533 90.8244 17.9333 90.1711 18.36C89.5178 18.7867 88.7778 19 87.9511 19H87.2711V16.02ZM91.1797 22.32C92.0597 21.96 92.8664 21.54 93.5997 21.06C94.333 20.5933 94.9064 20.1267 95.3197 19.66C95.7464 19.1933 95.9597 18.7933 95.9597 18.46C95.9597 17.9133 95.6064 16.4267 94.8997 14L94.7997 13.6L97.0397 12.72C97.3597 13.64 97.613 14.6267 97.7997 15.68C97.9864 16.72 98.0797 17.6467 98.0797 18.46C98.0797 19.7667 97.5664 20.9733 96.5397 22.08C95.513 23.2 94.133 24.12 92.3997 24.84L91.1797 22.32ZM102.295 4.2C102.428 5.17333 102.535 6.49333 102.615 8.16C102.695 9.81333 102.735 11.3467 102.735 12.76V13.52C102.721 14.2 102.755 14.7133 102.835 15.06C102.915 15.4067 103.075 15.6533 103.315 15.8C103.568 15.9467 103.955 16.02 104.475 16.02H104.575L104.735 17.52L104.575 19H104.475C103.008 19 101.948 18.58 101.295 17.74C100.655 16.9 100.335 15.62 100.335 13.9C100.321 12.26 100.268 10.6 100.175 8.92C100.095 7.22667 99.9745 5.83333 99.8145 4.74L102.295 4.2ZM104.38 16.02H105.34C106.66 16.02 107.594 15.9067 108.14 15.68C108.687 15.4533 108.96 15.1067 108.96 14.64C108.947 14.3467 108.794 13.7867 108.5 12.96C108.207 12.12 107.994 11.56 107.86 11.28L109.98 10.12C110.247 10.68 110.514 11.4267 110.78 12.36C111.047 13.28 111.18 14.0867 111.18 14.78C111.167 16.14 110.707 17.1867 109.8 17.92C108.894 18.64 107.554 19 105.78 19H104.38V16.02ZM106.24 6L107.9 7.68C107.54 8.05333 107.174 8.42 106.8 8.78L106.24 9.34L105.42 8.5L104.58 7.68L106.24 6ZM109.74 6L111.4 7.68C111.04 8.05333 110.674 8.42 110.3 8.78L109.74 9.34L108.92 8.5L108.08 7.68L109.74 6Z" fill="#444444"></path><path d="M26.976 40.069C26.3453 40.069 25.7843 39.9443 25.293 39.695C24.809 39.453 24.4277 39.1047 24.149 38.65C23.8703 38.1953 23.731 37.6637 23.731 37.055C23.731 36.6077 23.8043 36.1347 23.951 35.636C24.0977 35.1373 24.2663 34.6973 24.457 34.316L25.205 34.668C24.7943 35.5333 24.589 36.2887 24.589 36.934C24.589 37.6307 24.7943 38.1623 25.205 38.529C25.6157 38.8957 26.206 39.079 26.976 39.079C27.4233 39.079 27.845 39.0203 28.241 38.903C28.6443 38.7857 28.9743 38.639 29.231 38.463C29.4877 38.2943 29.6343 38.144 29.671 38.012C29.6343 37.9313 29.506 37.803 29.286 37.627C29.0733 37.4583 28.8057 37.2787 28.483 37.088C28.1603 36.8973 27.8267 36.7323 27.482 36.593L27.691 35.658C28.8277 35.8927 29.891 36.01 30.881 36.01H31.354L31.409 36.505L31.354 37H30.881C30.375 37 29.814 36.9597 29.198 36.879C28.5893 36.7983 28.021 36.703 27.493 36.593L27.713 35.955L27.933 36.054C28.6663 36.3767 29.2787 36.6957 29.77 37.011C30.2687 37.3337 30.518 37.6747 30.518 38.034C30.518 38.3713 30.353 38.694 30.023 39.002C29.7003 39.3173 29.264 39.574 28.714 39.772C28.1713 39.97 27.592 40.069 26.976 40.069ZM31.2282 36.01H33.5162L33.5712 36.505L33.5162 37H31.2282V36.01ZM33.4089 36.01H35.6969L35.7519 36.505L35.6969 37H33.4089V36.01ZM35.5895 36.01H37.8775L37.9325 36.505L37.8775 37H35.5895V36.01ZM37.7702 36.01H40.0582L40.1132 36.505L40.0582 37H37.7702V36.01ZM39.9509 36.01H42.2389L42.2939 36.505L42.2389 37H39.9509V36.01ZM42.1315 36.01H44.4195L44.4745 36.505L44.4195 37H42.1315V36.01ZM44.3122 36.01H44.4112C44.9759 36.01 45.4159 35.988 45.7312 35.944C46.0465 35.8927 46.2775 35.8157 46.4242 35.713C46.5709 35.6103 46.6772 35.471 46.7432 35.295C46.7872 35.163 46.8092 35.0053 46.8092 34.822C46.8092 34.5873 46.7652 34.184 46.6772 33.612L47.4912 33.458C47.5792 33.92 47.6269 34.5067 47.6342 35.218C47.7369 35.746 48.0705 36.01 48.6352 36.01H48.7122L48.7672 36.505L48.7122 37H48.6352C48.2685 37 47.9459 36.8937 47.6672 36.681C47.3959 36.461 47.2052 36.1823 47.0952 35.845L47.3152 35.889C47.2199 36.1677 47.0622 36.3877 46.8422 36.549C46.6222 36.7103 46.3179 36.8277 45.9292 36.901C45.5479 36.967 45.0419 37 44.4112 37H44.3122V36.01ZM44.9172 31.555L45.4122 31.06L46.1492 31.797L45.4122 32.545L44.6752 31.797L44.9172 31.555ZM46.8752 31.555L47.3702 31.06L48.1072 31.797L47.3702 32.545L46.6332 31.797L46.8752 31.555ZM53.5703 29.971L50.1273 31.467C50.714 31.9657 51.231 32.5413 51.6783 33.194C52.133 33.8393 52.3603 34.4407 52.3603 34.998C52.3603 35.1887 52.3273 35.372 52.2613 35.548C52.0853 36.0393 51.7077 36.406 51.1283 36.648C50.549 36.8827 49.7973 37 48.8733 37H48.5983V36.01H48.8733C50.626 36.01 51.5023 35.647 51.5023 34.921C51.5023 34.547 51.2933 34.0887 50.8753 33.546C50.4647 33.0033 49.889 32.4313 49.1483 31.83L49.2693 30.895L53.2843 29.157L53.5703 29.971ZM56.5585 37C56.1039 37 55.7519 36.8423 55.5025 36.527C55.2532 36.2117 55.0442 35.757 54.8755 35.163L55.4915 34.789C55.6015 35.2363 55.7335 35.5517 55.8875 35.735C56.0489 35.9183 56.2725 36.01 56.5585 36.01H56.6355L56.6905 36.505L56.6355 37H56.5585ZM52.4775 39.299C52.9469 39.1377 53.3722 38.925 53.7535 38.661C54.1349 38.397 54.4319 38.1147 54.6445 37.814C54.8645 37.5133 54.9745 37.231 54.9745 36.967C54.9745 36.593 54.7875 35.6763 54.4135 34.217L55.2605 33.898C55.4219 34.4187 55.5539 34.9687 55.6565 35.548C55.7665 36.1273 55.8215 36.6003 55.8215 36.967C55.8215 37.3997 55.6932 37.8213 55.4365 38.232C55.1799 38.65 54.8242 39.024 54.3695 39.354C53.9222 39.6913 53.4162 39.959 52.8515 40.157L52.4775 39.299ZM62.6861 36.01C63.2361 36.01 63.5111 35.7057 63.5111 35.097C63.5111 34.8477 63.4377 34.4993 63.2911 34.052C63.1517 33.5973 63.0271 33.2527 62.9171 33.018L63.6981 32.589C63.8447 32.897 63.9914 33.3003 64.1381 33.799C64.2847 34.2903 64.3581 34.723 64.3581 35.097C64.3581 35.4563 64.2847 35.7827 64.1381 36.076C63.9987 36.362 63.8007 36.5893 63.5441 36.758C63.2947 36.9193 63.0087 37 62.6861 37H62.6641V36.01H62.6861ZM59.6941 37V36.01H59.7271C60.1377 36.01 60.4897 35.7533 60.7831 35.24C60.8784 35.064 60.9517 34.855 61.0031 34.613C61.0617 34.371 61.1167 34.1033 61.1681 33.81L61.9821 33.854C61.9747 33.8833 61.9491 34.019 61.9051 34.261C61.8611 34.503 61.8391 34.7377 61.8391 34.965C61.8391 35.317 61.9051 35.581 62.0371 35.757C62.1764 35.9257 62.3927 36.01 62.6861 36.01H62.7081L62.7631 36.505L62.7081 37H62.6861C62.2607 37 61.9197 36.8753 61.6631 36.626C61.4137 36.3693 61.2634 36.0137 61.2121 35.559L61.3881 35.548C61.2341 35.966 61.0067 36.3143 60.7061 36.593C60.4127 36.8643 60.0827 37 59.7161 37H59.6941ZM56.5481 37L56.4931 36.505L56.5481 36.01H56.6031C56.8744 36.01 57.1311 35.9477 57.3731 35.823C57.6151 35.6983 57.8021 35.5333 57.9341 35.328C58.0734 35.13 58.1797 34.921 58.2531 34.701C58.3337 34.481 58.4144 34.2207 58.4951 33.92L59.3201 34.008C59.3054 34.052 59.2761 34.162 59.2321 34.338C59.1881 34.514 59.1514 34.679 59.1221 34.833C59.1001 34.987 59.0891 35.1263 59.0891 35.251C59.0891 35.757 59.2944 36.01 59.7051 36.01H59.7271L59.7821 36.505L59.7271 37H59.6941C59.3567 37 59.0744 36.901 58.8471 36.703C58.6271 36.4977 58.4951 36.2227 58.4511 35.878C58.2237 36.2447 57.9524 36.5233 57.6371 36.714C57.3217 36.9047 56.9734 37 56.5921 37H56.5481ZM61.5971 29.608L62.2571 30.279L61.5971 30.939L60.9371 30.279L61.5971 29.608ZM62.6091 30.73L63.3571 31.478L62.6091 32.215C62.3671 31.9657 62.1214 31.72 61.8721 31.478L62.6091 30.73ZM60.5851 30.73L61.3331 31.478L60.5851 32.215C60.3431 31.9657 60.0974 31.72 59.8481 31.478L60.5851 30.73ZM73.1231 37.11C73.1157 37 73.1121 36.835 73.1121 36.615C73.1121 36.395 73.1157 36.23 73.1231 36.12C74.0177 36.12 74.7474 36.0467 75.3121 35.9C75.8767 35.746 76.3204 35.5113 76.6431 35.196C76.9731 34.8733 77.2261 34.448 77.4021 33.92L78.2161 34.008C78.0914 34.4187 78.0291 34.7633 78.0291 35.042C78.0291 35.6873 78.3444 36.01 78.9751 36.01L79.0301 36.505L78.9751 37C78.4837 37 78.0804 36.846 77.7651 36.538C77.4571 36.23 77.3031 35.8157 77.3031 35.295H77.5231C77.1197 35.933 76.5551 36.395 75.8291 36.681C75.1104 36.967 74.2084 37.11 73.1231 37.11ZM70.1751 33.293C69.9697 33.865 69.8671 34.316 69.8671 34.646C69.8671 34.7487 69.8707 34.8257 69.8781 34.877C69.9367 35.273 70.2411 35.581 70.7911 35.801C71.3411 36.0137 72.1367 36.12 73.1781 36.12C73.1927 36.2447 73.2001 36.428 73.2001 36.67C73.2001 36.868 73.1964 37.0147 73.1891 37.11C71.9131 37.1173 70.9157 36.9413 70.1971 36.582C69.4857 36.2153 69.0971 35.6947 69.0311 35.02C69.0237 34.9613 69.0201 34.877 69.0201 34.767C69.0201 34.459 69.0567 34.14 69.1301 33.81C69.2107 33.4727 69.3097 33.1757 69.4271 32.919L70.1751 33.293ZM71.9131 32.886L72.4081 32.391L73.1451 33.128L72.4081 33.876L71.6711 33.128L71.9131 32.886ZM73.8711 32.886L74.3661 32.391L75.1031 33.128L74.3661 33.876L73.6291 33.128L73.8711 32.886ZM78.8698 36.01H79.3098C80.0945 36.01 80.6481 35.9367 80.9708 35.79C81.2935 35.636 81.4548 35.3867 81.4548 35.042C81.4475 34.8147 81.3705 34.47 81.2238 34.008C81.0845 33.5387 80.9635 33.2013 80.8608 32.996L81.6528 32.578C81.7995 32.864 81.9425 33.2527 82.0818 33.744C82.2285 34.228 82.3018 34.6497 82.3018 35.009C82.3018 35.6617 82.0635 36.1567 81.5868 36.494C81.1101 36.8313 80.3915 37 79.4308 37H78.8698V36.01ZM78.4958 38.551L78.9908 38.056L79.7278 38.793L78.9908 39.541L78.2538 38.793L78.4958 38.551ZM80.4538 38.551L80.9488 38.056L81.6858 38.793L80.9488 39.541L80.2118 38.793L80.4538 38.551ZM84.399 29.344C84.4577 29.718 84.5017 30.3743 84.531 31.313C84.5677 32.2443 84.586 33.0913 84.586 33.854V34.316L84.575 34.701C84.575 35.0457 84.6044 35.3097 84.663 35.493C84.7217 35.669 84.8317 35.801 84.993 35.889C85.1617 35.9697 85.411 36.01 85.741 36.01H85.796L85.851 36.505L85.796 37H85.741C85.2204 37 84.8134 36.9157 84.52 36.747C84.2267 36.571 84.0177 36.3107 83.893 35.966C83.7757 35.6213 83.717 35.1667 83.717 34.602C83.717 33.766 83.6987 32.82 83.662 31.764C83.6327 30.7007 83.585 29.9563 83.519 29.531L84.399 29.344ZM91.8511 36.01C92.4011 36.01 92.6761 35.7057 92.6761 35.097C92.6761 34.8477 92.6028 34.4993 92.4561 34.052C92.3168 33.5973 92.1921 33.2527 92.0821 33.018L92.8631 32.589C93.0098 32.897 93.1564 33.3003 93.3031 33.799C93.4498 34.2903 93.5231 34.723 93.5231 35.097C93.5231 35.4563 93.4498 35.7827 93.3031 36.076C93.1638 36.362 92.9658 36.5893 92.7091 36.758C92.4598 36.9193 92.1738 37 91.8511 37H91.8291V36.01H91.8511ZM88.8591 37V36.01H88.8921C89.3028 36.01 89.6548 35.7533 89.9481 35.24C90.0434 35.064 90.1168 34.855 90.1681 34.613C90.2268 34.371 90.2818 34.1033 90.3331 33.81L91.1471 33.854C91.1398 33.8833 91.1141 34.019 91.0701 34.261C91.0261 34.503 91.0041 34.7377 91.0041 34.965C91.0041 35.317 91.0701 35.581 91.2021 35.757C91.3414 35.9257 91.5578 36.01 91.8511 36.01H91.8731L91.9281 36.505L91.8731 37H91.8511C91.4258 37 91.0848 36.8753 90.8281 36.626C90.5788 36.3693 90.4284 36.0137 90.3771 35.559L90.5531 35.548C90.3991 35.966 90.1718 36.3143 89.8711 36.593C89.5778 36.8643 89.2478 37 88.8811 37H88.8591ZM85.7131 37L85.6581 36.505L85.7131 36.01H85.7681C86.0394 36.01 86.2961 35.9477 86.5381 35.823C86.7801 35.6983 86.9671 35.5333 87.0991 35.328C87.2384 35.13 87.3448 34.921 87.4181 34.701C87.4988 34.481 87.5794 34.2207 87.6601 33.92L88.4851 34.008C88.4704 34.052 88.4411 34.162 88.3971 34.338C88.3531 34.514 88.3164 34.679 88.2871 34.833C88.2651 34.987 88.2541 35.1263 88.2541 35.251C88.2541 35.757 88.4594 36.01 88.8701 36.01H88.8921L88.9471 36.505L88.8921 37H88.8591C88.5218 37 88.2394 36.901 88.0121 36.703C87.7921 36.4977 87.6601 36.2227 87.6161 35.878C87.3888 36.2447 87.1174 36.5233 86.8021 36.714C86.4868 36.9047 86.1384 37 85.7571 37H85.7131ZM105.368 33.282C105.786 33.9787 106.138 34.5177 106.424 34.899C106.71 35.2803 106.981 35.5627 107.238 35.746C107.502 35.922 107.784 36.01 108.085 36.01H108.228L108.283 36.505L108.228 37H108.085C107.704 37 107.344 36.8863 107.007 36.659C106.677 36.4243 106.343 36.087 106.006 35.647C105.676 35.1997 105.302 34.6057 104.884 33.865L105.368 33.282ZM107.194 29.971L103.751 31.467C104.338 31.9657 104.855 32.5413 105.302 33.194C105.757 33.8393 105.984 34.4407 105.984 34.998C105.984 35.1887 105.951 35.372 105.885 35.548C105.702 36.054 105.317 36.4427 104.73 36.714C104.143 36.978 103.399 37.11 102.497 37.11H102.222L102.167 36.615L102.222 36.12H102.497C103.23 36.12 103.817 36.0467 104.257 35.9C104.697 35.7533 104.968 35.5443 105.071 35.273C105.108 35.1923 105.126 35.0823 105.126 34.943C105.126 34.547 104.921 34.0813 104.51 33.546C104.099 33.0033 103.52 32.4313 102.772 31.83L102.893 30.895L106.908 29.157L107.194 29.971ZM99.3401 33.293C99.1348 33.865 99.0321 34.316 99.0321 34.646C99.0321 34.7487 99.0358 34.8257 99.0431 34.877C99.1018 35.273 99.4061 35.581 99.9561 35.801C100.506 36.0137 101.302 36.12 102.343 36.12C102.358 36.2447 102.365 36.428 102.365 36.67C102.365 36.868 102.361 37.0147 102.354 37.11C101.078 37.1173 100.081 36.9413 99.3621 36.582C98.6508 36.2153 98.2621 35.6947 98.1961 35.02C98.1888 34.9613 98.1851 34.877 98.1851 34.767C98.1851 34.459 98.2218 34.14 98.2951 33.81C98.3758 33.4727 98.4748 33.1757 98.5921 32.919L99.3401 33.293ZM108.121 36.01H108.561C109.345 36.01 109.899 35.9367 110.222 35.79C110.544 35.636 110.706 35.3867 110.706 35.042C110.698 34.8147 110.621 34.47 110.475 34.008C110.335 33.5387 110.214 33.2013 110.112 32.996L110.904 32.578C111.05 32.864 111.193 33.2527 111.333 33.744C111.479 34.228 111.553 34.6497 111.553 35.009C111.553 35.6617 111.314 36.1567 110.838 36.494C110.361 36.8313 109.642 37 108.682 37H108.121V36.01ZM107.747 38.551L108.242 38.056L108.979 38.793L108.242 39.541L107.505 38.793L107.747 38.551ZM109.705 38.551L110.2 38.056L110.937 38.793L110.2 39.541L109.463 38.793L109.705 38.551Z" fill="#BBBBBB"></path><rect x="2" y="24" width="17" height="17" rx="3" fill="#E5D1B8"></rect><path d="M1.39301 35.063H4.09701L4.20101 36.038L4.09701 37H1.39301V35.063ZM3.97016 35.063H6.67416L6.77816 36.038L6.67416 37H3.97016V35.063ZM6.5473 35.063H7.1713C8.0293 35.063 8.63597 34.9893 8.9913 34.842C9.34664 34.6947 9.5243 34.4693 9.5243 34.166C9.51564 33.9753 9.41597 33.6113 9.2253 33.074C9.03464 32.528 8.89597 32.164 8.8093 31.982L10.1873 31.228C10.3606 31.592 10.534 32.0773 10.7073 32.684C10.8806 33.282 10.9673 33.8063 10.9673 34.257C10.9586 35.141 10.6596 35.8213 10.0703 36.298C9.48097 36.766 8.60997 37 7.4573 37H6.5473V35.063ZM7.7563 28.55L8.8353 29.642C8.6013 29.8847 8.36297 30.123 8.1203 30.357L7.7563 30.721L7.2233 30.175L6.6773 29.642L7.7563 28.55ZM10.0313 28.55L11.1103 29.642C10.8763 29.8847 10.638 30.123 10.3953 30.357L10.0313 30.721L9.4983 30.175L8.9523 29.642L10.0313 28.55Z" fill="white"></path></svg>